HIERARCHY
ROOT Hips
{
	OFFSET 0.000000 0.000000 0.000000
	CHANNELS 6 Xposition Yposition Zposition Zrotation Yrotation Xrotation 
	JOINT LHipJoint
	{
		OFFSET 0.000000 0.000000 0.000000
		CHANNELS 3 Zrotation Yrotation Xrotation
		JOINT LeftUpLeg
		{
			OFFSET 1.363060 -1.794630 0.839290
			CHANNELS 3 Zrotation Yrotation Xrotation
			JOINT LeftLeg
			{
				OFFSET 2.448110 -6.726130 0.000000
				CHANNELS 3 Zrotation Yrotation Xrotation
				JOINT LeftFoot
				{
					OFFSET 2.562200 -7.039590 0.000000
					CHANNELS 3 Zrotation Yrotation Xrotation
					JOINT LeftToeBase
					{
						OFFSET 0.157640 -0.433110 2.322550
						CHANNELS 3 Zrotation Yrotation Xrotation
						End Site
						{
							OFFSET 0.000000 0.000000 0.000000
						}
					}
				}
			}
		}
	}
	JOINT RHipJoint
	{
		OFFSET 0.000000 0.000000 0.000000
		CHANNELS 3 Zrotation Yrotation Xrotation
		JOINT RightUpLeg
		{
			OFFSET -1.305520 -1.794630 0.839290
			CHANNELS 3 Zrotation Yrotation Xrotation
			JOINT RightLeg
			{
				OFFSET -2.542530 -6.985550 0.000000
				CHANNELS 3 Zrotation Yrotation Xrotation
				JOINT RightFoot
				{
					OFFSET -2.568260 -7.056230 0.000000
					CHANNELS 3 Zrotation Yrotation Xrotation
					JOINT RightToeBase
					{
						OFFSET -0.164730 -0.452590 2.363150
						CHANNELS 3 Zrotation Yrotation Xrotation
						End Site
						{
							OFFSET 0.000000 0.000000 0.000000
						}
					}
				}
			}
		}
	}
	JOINT LowerBack
	{
		OFFSET 0.000000 0.000000 0.000000
		CHANNELS 3 Zrotation Yrotation Xrotation
		JOINT Spine
		{
			OFFSET 0.028270 2.035590 -0.193380
			CHANNELS 3 Zrotation Yrotation Xrotation
			JOINT Spine1
			{
				OFFSET 0.056720 2.048850 -0.042750
				CHANNELS 3 Zrotation Yrotation Xrotation
				JOINT Neck
				{
					OFFSET 0.000000 0.000000 0.000000
					CHANNELS 3 Zrotation Yrotation Xrotation
					JOINT Neck1
					{
						OFFSET -0.054170 1.746240 0.172020
						CHANNELS 3 Zrotation Yrotation Xrotation
						JOINT Head
						{
							OFFSET 0.104070 1.761360 -0.123970
							CHANNELS 3 Zrotation Yrotation Xrotation
							End Site
							{
								OFFSET 0.000000 0.000000 0.000000
							}
						}
					}
				}
				JOINT LeftShoulder
				{
					OFFSET 0.000000 0.000000 0.000000
					CHANNELS 3 Zrotation Yrotation Xrotation
					JOINT LeftArm
					{
						OFFSET 3.362410 1.200890 -0.311210
						CHANNELS 3 Zrotation Yrotation Xrotation
						JOINT LeftForeArm
						{
							OFFSET 4.983000 -0.000000 -0.000000
							CHANNELS 3 Zrotation Yrotation Xrotation
							JOINT LeftHand
							{
								OFFSET 3.483560 -0.000000 -0.000000
								CHANNELS 3 Zrotation Yrotation Xrotation
								JOINT LeftFingerBase
								{
									OFFSET 0.000000 0.000000 0.000000
									CHANNELS 3 Zrotation Yrotation Xrotation
									JOINT LeftHandIndex1
									{
										OFFSET 0.715260 -0.000000 -0.000000
										CHANNELS 3 Zrotation Yrotation Xrotation
										End Site
										{
											OFFSET 0.000000 0.000000 0.000000
										}
									}
								}
								JOINT LThumb
								{
									OFFSET 0.000000 0.000000 0.000000
									CHANNELS 3 Zrotation Yrotation Xrotation
									End Site
									{
										OFFSET 0.000000 0.000000 0.000000
									}
								}
							}
						}
					}
				}
				JOINT RightShoulder
				{
					OFFSET 0.000000 0.000000 0.000000
					CHANNELS 3 Zrotation Yrotation Xrotation
					JOINT RightArm
					{
						OFFSET -3.136600 1.374050 -0.404650
						CHANNELS 3 Zrotation Yrotation Xrotation
						JOINT RightForeArm
						{
							OFFSET -5.241900 -0.000000 -0.000000
							CHANNELS 3 Zrotation Yrotation Xrotation
							JOINT RightHand
							{
								OFFSET -3.444170 -0.000000 -0.000000
								CHANNELS 3 Zrotation Yrotation Xrotation
								JOINT RightFingerBase
								{
									OFFSET 0.000000 0.000000 0.000000
									CHANNELS 3 Zrotation Yrotation Xrotation
									JOINT RightHandIndex1
									{
										OFFSET -0.622530 -0.000000 -0.000000
										CHANNELS 3 Zrotation Yrotation Xrotation
										End Site
										{
											OFFSET 0.000000 0.000000 0.000000
										}
									}
								}
								JOINT RThumb
								{
									OFFSET 0.000000 0.000000 0.000000
									CHANNELS 3 Zrotation Yrotation Xrotation
									End Site
									{
										OFFSET 0.000000 0.000000 0.000000
									}
								}
							}
						}
					}
				}
			}
		}
	}
}
MOTION
Frames: 7
Frame Time: 0.008333
3.614835 17.352843 1.808062 -3.065603 -1.700375 -5.713203 -7.100568 -1.233955 1.958658 2.223861 6.002599 -16.769419 6.498436 15.998131 46.892715 5.776490 -7.553096 1.999904 0.410000 -4.110600 -11.388100 7.480372 1.799975 2.000906 4.792986 -9.168390 -18.706080 -6.983039 -16.501915 49.378319 -2.398034 1.377126 -5.277523 -0.391800 4.019300 -11.130900 2.575569 -0.046051 7.792089 1.741699 0.414505 -2.065074 1.656943 -0.101740 -2.333610 -1.777236 -0.579982 -20.303766 3.081734 -0.495235 11.849288 -0.889300 -0.350700 12.860100 -4.601410 -15.355790 -3.510347 -16.529144 -35.764273 -1.226146 39.259128 -35.188762 -31.302442 2.824466 -6.534696 19.105160 -13.457268 8.313094 -4.409400 -7.125000 0.000000 0.000000 -38.644300 40.122200 5.662100 4.912918 15.018043 -3.996662 4.107685 35.533589 -4.385437 -26.851438 33.609316 -15.967885 -0.633644 5.750107 19.972332 8.920777 -13.122155 -3.645800 7.125000 0.000000 0.000000 35.945600 -44.946100 0.055300 
3.614406 17.352735 1.807740 -3.091933 -1.700060 -5.719018 -7.095280 -1.230772 1.957307 2.250803 6.000549 -16.764372 6.500425 15.997751 46.892418 5.788263 -7.579971 2.014306 0.408100 -4.101000 -11.361000 7.483690 1.801059 2.002990 4.819528 -9.170334 -18.702464 -6.980912 -16.502551 49.379379 -2.395657 1.374258 -5.273216 -0.390800 4.014000 -11.116000 2.602376 -0.042564 7.806871 1.742527 0.422772 -2.064218 1.641729 -0.098200 -2.341343 -1.765809 -0.582256 -20.288335 3.079313 -0.503924 11.835409 -0.896000 -0.353500 12.845600 -4.599218 -15.359005 -3.515563 -16.538649 -35.777682 -1.214646 39.260554 -35.191559 -31.303111 2.838893 -6.531863 19.132740 -13.527604 8.262420 -4.412200 -7.125000 0.000000 0.000000 -38.675700 40.061900 5.740700 4.915254 15.019268 -3.990103 4.095852 35.518613 -4.406752 -26.838537 33.601096 -15.964011 -0.633174 5.754943 19.960069 8.925155 -13.140279 -3.651800 7.125000 0.000000 0.000000 35.962100 -44.965000 0.036000 
3.614513 17.352520 1.806880 -3.107154 -1.694068 -5.710890 -7.092804 -1.232121 1.954275 2.263535 5.994209 -16.771795 6.500735 15.996622 46.889612 5.781461 -7.562773 2.020388 0.411900 -4.119800 -11.413900 7.485120 1.804251 2.001782 4.834981 -9.178533 -18.716760 -6.979674 -16.501950 49.377689 -2.392654 1.368360 -5.269326 -0.391600 4.018400 -11.128500 2.621738 -0.044182 7.811131 1.742993 0.422801 -2.064192 1.634813 -0.098530 -2.345534 -1.772900 -0.580840 -20.286007 3.085693 -0.500302 11.830688 -0.888400 -0.352000 12.842300 -4.597128 -15.363012 -3.520965 -16.539542 -35.787592 -1.212731 39.257768 -35.193782 -31.302127 2.852532 -6.532570 19.093145 -13.590867 8.245226 -4.425300 -7.125000 0.000000 0.000000 -38.719100 40.038400 5.778200 4.912266 15.023401 -3.991492 4.091659 35.523686 -4.436936 -26.829203 33.595352 -15.959478 -0.634334 5.752630 19.964500 8.922753 -13.124185 -3.647600 7.125000 0.000000 0.000000 35.950400 -44.949500 0.051800 
3.614835 17.353702 1.806988 -3.071094 -1.684926 -5.700039 -7.100420 -1.237801 1.954580 2.227253 5.985710 -16.781922 6.495481 15.996380 46.886110 5.780208 -7.563004 2.021955 0.409700 -4.109200 -11.384000 7.481022 1.802821 2.000385 4.799490 -9.188915 -18.726727 -6.980703 -16.498960 49.369714 -2.396274 1.375943 -5.247775 -0.392900 4.024600 -11.145900 2.580227 -0.044554 7.798868 1.741196 0.417253 -2.066978 1.645143 -0.099418 -2.359097 -1.779298 -0.576534 -20.231368 3.093235 -0.494845 11.810632 -0.882700 -0.349000 12.810700 -4.600899 -15.358784 -3.514864 -16.565212 -35.793411 -1.192355 39.261493 -35.188858 -31.295574 2.845106 -6.529834 19.123701 -13.560293 8.243459 -4.414700 -7.125000 0.000000 0.000000 -38.691400 40.039100 5.771300 4.912912 15.021983 -3.989089 4.103948 35.522944 -4.419553 -26.835099 33.599399 -15.964177 -0.639724 5.754830 19.948953 8.951254 -13.120721 -3.657900 7.125000 0.000000 0.000000 35.975500 -44.943000 0.058500 
3.614943 17.354777 1.807310 -3.079728 -1.688168 -5.703901 -7.099616 -1.234883 1.957131 2.235343 5.986772 -16.772975 6.494197 15.994714 46.879996 5.789090 -7.582180 2.023819 0.408700 -4.104200 -11.369900 7.482189 1.801767 2.001985 4.805050 -9.188361 -18.722404 -6.978558 -16.498419 49.365027 -2.398668 1.382402 -5.241279 -0.390700 4.013400 -11.114400 2.592696 -0.042155 7.813687 1.741225 0.422475 -2.068467 1.637277 -0.096822 -2.373135 -1.779170 -0.577532 -20.225827 3.092858 -0.496360 11.814057 -0.883100 -0.349600 12.814400 -4.601193 -15.359940 -3.515001 -16.582473 -35.797963 -1.172253 39.273628 -35.196038 -31.311188 2.864996 -6.528403 19.082118 -13.651863 8.207151 -4.428900 -7.125000 0.000000 0.000000 -38.747100 39.992600 5.839200 4.913437 15.023401 -3.990169 4.110538 35.522563 -4.407343 -26.829347 33.590869 -15.954365 -0.629089 5.754853 19.931728 8.909832 -13.157236 -3.648500 7.125000 0.000000 0.000000 35.955300 -44.984200 0.016200 
3.614406 17.354884 1.807203 -3.071263 -1.681529 -5.699763 -7.102307 -1.235891 1.957247 2.230843 5.980018 -16.772820 6.490321 15.993082 46.871503 5.787565 -7.578987 2.033858 0.407400 -4.097700 -11.351700 7.480142 1.801677 2.000977 4.799323 -9.196003 -18.726701 -6.978611 -16.497432 49.362242 -2.402721 1.391915 -5.233327 -0.389700 4.008400 -11.100400 2.569409 -0.040157 7.808701 1.743949 0.422996 -2.067657 1.662726 -0.096637 -2.374137 -1.795599 -0.577220 -20.200448 3.095686 -0.490246 11.795368 -0.879800 -0.348200 12.791500 -4.599536 -15.359383 -3.517470 -16.600428 -35.815271 -1.163675 39.269030 -35.189978 -31.299347 2.866895 -6.526488 19.058296 -13.659116 8.198243 -4.427500 -7.125000 0.000000 0.000000 -38.747100 39.984200 5.849200 4.915181 15.024003 -3.984989 4.104645 35.521456 -4.412705 -26.824567 33.591596 -15.952715 -0.631316 5.757950 19.914780 8.924634 -13.168347 -3.656500 7.125000 0.000000 0.000000 35.976000 -44.993600 0.006600 
3.614298 17.355529 1.807310 -3.076647 -1.681540 -5.702451 -7.101673 -1.235061 1.957459 2.235670 5.981236 -16.769827 6.489044 15.991519 46.865285 5.784892 -7.570369 2.028827 0.411000 -4.115400 -11.401600 7.481998 1.801563 2.002097 4.805267 -9.195055 -18.722964 -6.976013 -16.496582 49.357227 -2.393288 1.370156 -5.235503 -0.392800 4.024100 -11.144500 2.578410 -0.042679 7.822103 1.743273 0.420913 -2.067043 1.650778 -0.097275 -2.378535 -1.777986 -0.569899 -20.197933 3.088550 -0.487499 11.786873 -0.887800 -0.346400 12.785300 -4.598885 -15.362007 -3.514144 -16.601542 -35.813817 -1.161161 39.271683 -35.190567 -31.299493 2.862143 -6.524679 19.063433 -13.632865 8.200611 -4.420300 -7.125000 0.000000 0.000000 -38.726000 39.989500 5.838100 4.915325 15.024253 -3.989653 4.114530 35.531782 -4.415328 -26.816513 33.586176 -15.945203 -0.633464 5.755374 19.916752 8.929749 -13.149042 -3.654300 7.125000 0.000000 0.000000 35.969000 -44.974100 0.026600 
